<?xml version="1.0" encoding="UTF-8" standalone="no"?><!DOCTYPE svg PUBLIC "-//W3C//DTD SVG 1.1//EN" "http://www.w3.org/Graphics/SVG/1.1/DTD/svg11.dtd"><svg width="100%" height="100%" viewBox="0 0 656 236" version="1.1" xmlns="http://www.w3.org/2000/svg" xmlns:xlink="http://www.w3.org/1999/xlink" xml:space="preserve" xmlns:serif="http://www.serif.com/" style="fill-rule:evenodd;clip-rule:evenodd;stroke-linecap:round;stroke-linejoin:round;stroke-miterlimit:1.5;"><g><rect x="347.644" y="103" width="58.946" height="30" style="fill:none;stroke:#000;stroke-width:6px;"/><rect x="347.644" y="103" width="58.946" height="30" style="fill:url(#_Linear1);"/><path d="M623,133l-70,0l0,-100l30,0l0,70l40,0l0,-70l30,0l0,199.52l-250,0l0,-30l0,-169.52l30,0l0,169.52l10,0l0,-169.52l100,0l0,169.52l80,0l0,-69.52Zm-150,0l0,69.52l40,0l0,-69.52l-40,0Zm0,-70l0,40l40,0l0,-40l-40,0Z" style="fill:none;stroke:#231f20;stroke-width:6px;"/><path d="M623,133l-70,0l0,-100l30,0l0,70l40,0l0,-70l30,0l0,199.52l-250,0l0,-30l0,-169.52l30,0l0,169.52l10,0l0,-169.52l100,0l0,169.52l80,0l0,-69.52Zm-150,0l0,69.52l40,0l0,-69.52l-40,0Zm0,-70l0,40l40,0l0,-40l-40,0Z" style="fill:#0972ae;"/><path d="M323.031,33l0,140l-30,0l0,-70l-40,0l0,70l-30,0l0,-70l0,-30l0,-40l-10.031,0l-70,0l0,40l70,0l0,30l-70,0l0,40l70,0l0,30l-70,0l-30,0l0,-30l0,-40l0,-30l0,-40l-80,0l0,40l70,0l0,100l-30,0l-70,0l0,-30l70,0l0,-40l-70,0l0,-100l360,0l0,200l-30,0l0,-70l0,-100l-9.969,0Zm-30,40l0,-40l-40,0l0,40l40,0Z" style="fill:none;stroke:#000;stroke-width:6px;"/><path d="M323.031,33l0,140l-30,0l0,-70l-40,0l0,70l-30,0l0,-70l0,-30l0,-40l-10.031,0l-70,0l0,40l70,0l0,30l-70,0l0,40l70,0l0,30l-70,0l-30,0l0,-30l0,-40l0,-30l0,-40l-80,0l0,40l70,0l0,100l-30,0l-70,0l0,-30l70,0l0,-40l-70,0l0,-100l360,0l0,200l-30,0l0,-70l0,-100l-9.969,0Zm-30,40l0,-40l-40,0l0,40l40,0Z" style="fill:#f1a62c;"/><rect x="347.644" y="103" width="58.946" height="30" style="fill:url(#_Linear2);"/></g><defs><linearGradient id="_Linear1" x1="0" y1="0" x2="1" y2="0" gradientUnits="userSpaceOnUse" gradientTransform="matrix(-36.9707,-30,30,-36.9707,403,133)"><stop offset="0" style="stop-color:#0972ae;stop-opacity:1"/><stop offset="0.5" style="stop-color:#0972ae;stop-opacity:1"/><stop offset="0.5" style="stop-color:#f1a62c;stop-opacity:1"/><stop offset="1" style="stop-color:#f1a62c;stop-opacity:1"/></linearGradient><linearGradient id="_Linear2" x1="0" y1="0" x2="1" y2="0" gradientUnits="userSpaceOnUse" gradientTransform="matrix(-36.9707,-30,30,-36.9707,403,133)"><stop offset="0" style="stop-color:#0972ae;stop-opacity:1"/><stop offset="0.5" style="stop-color:#0972ae;stop-opacity:1"/><stop offset="0.5" style="stop-color:#f1a62c;stop-opacity:1"/><stop offset="1" style="stop-color:#f1a62c;stop-opacity:1"/></linearGradient></defs></svg>